<?xml version="1.0" standalone="no"?>
<!DOCTYPE svg PUBLIC "-//W3C//DTD SVG 20010904//EN"
 "http://www.w3.org/TR/2001/REC-SVG-20010904/DTD/svg10.dtd">
<svg version="1.0" xmlns="http://www.w3.org/2000/svg"
 width="260.000000pt" height="260.000000pt" viewBox="0 0 260.000000 260.000000"
 preserveAspectRatio="xMidYMid meet">
<metadata>
Created by potrace 1.14, written by Peter Selinger 2001-2017
</metadata>
<g transform="translate(0.000000,260.000000) scale(0.100000,-0.100000)"
fill="#000000" stroke="none">
<path d="M1498 1974 c-30 -30 -42 -47 -46 -64 -2 -8 -12 -32 -22 -55 -42 -92
-102 -231 -105 -240 -1 -5 -13 -32 -26 -60 -13 -27 -24 -52 -25 -55 -1 -3 -5
-15 -9 -27 -4 -13 -12 -23 -18 -23 -6 0 -7 -3 -4 -6 3 -4 1 -16 -5 -28 -7 -11
-13 -27 -14 -35 -2 -8 -6 -17 -11 -20 -4 -3 -9 -13 -11 -21 -2 -8 -13 -35 -24
-60 -12 -25 -22 -47 -23 -50 0 -3 -11 -27 -24 -55 -12 -27 -24 -54 -25 -60 -1
-5 -10 -24 -19 -41 -9 -17 -13 -34 -10 -38 4 -3 2 -6 -4 -6 -6 0 -14 -10 -18
-22 -4 -13 -8 -25 -9 -28 -2 -3 -6 -17 -10 -32 -5 -16 -12 -28 -17 -28 -5 0
-9 -5 -9 -11 0 -6 -17 -49 -37 -97 -43 -99 -46 -145 -11 -176 39 -35 69 -44
105 -32 46 16 57 30 103 136 22 52 45 104 50 115 43 94 68 155 62 155 -4 0 -2
4 4 8 6 4 21 34 35 67 13 33 28 63 34 67 5 4 6 8 2 8 -4 0 -2 10 5 23 7 12 13
24 13 27 0 3 9 20 18 37 10 18 18 35 18 38 0 2 7 22 16 42 9 21 17 40 18 43 0
3 13 31 28 62 15 31 27 59 27 62 0 3 12 31 26 63 15 32 41 92 59 133 18 41 42
96 54 121 20 43 26 70 22 111 -1 19 -46 67 -64 69 -59 7 -78 3 -99 -17z"/>
<path d="M504 1857 c-19 -11 -74 -66 -154 -154 -45 -51 -200 -218 -298 -322
-52 -55 -53 -57 -48 -104 5 -47 8 -50 245 -285 131 -130 245 -242 253 -247 17
-14 67 -12 95 3 34 19 53 53 53 96 0 38 -8 47 -175 215 -96 97 -175 179 -175
183 0 5 -6 8 -13 8 -7 0 -18 9 -24 19 -10 17 -8 24 15 49 15 16 70 75 122 132
52 56 111 119 130 140 99 105 112 122 117 156 7 41 -21 101 -52 110 -34 12
-72 12 -91 1z"/>
<path d="M2025 1862 c-46 -9 -86 -72 -77 -120 3 -18 69 -92 198 -223 107 -107
194 -200 194 -207 0 -6 -15 -27 -32 -46 -18 -18 -73 -78 -123 -131 -49 -54
-119 -128 -153 -164 -68 -71 -82 -95 -82 -143 0 -22 10 -40 34 -62 31 -30 55
-36 108 -27 8 1 76 69 148 147 152 165 249 270 290 313 60 62 74 92 67 136 -5
30 -43 72 -251 280 -135 135 -248 245 -251 245 -3 0 -6 0 -7 1 -11 3 -47 4
-63 1z"/>
</g>
</svg>
